Coordinates
version=1
nRows=6
nColumns=63
inDegrees=yes

Units are S.I. units (second, meters, Newtons, ...)
If the header above contains a line with 'inDegrees', this indicates whether rotational values are in degrees (yes) or radians (no).

endheader
time	pelvis_tilt	pelvis_list	pelvis_rotation	pelvis_tx	pelvis_ty	pelvis_tz	hip_flexion_r	hip_adduction_r	hip_rotation_r	knee_angle_r	knee_angle_r_beta	ankle_angle_r	subtalar_angle_r	mtp_angle_r	hip_flexion_l	hip_adduction_l	hip_rotation_l	knee_angle_l	knee_angle_l_beta	ankle_angle_l	subtalar_angle_l	mtp_angle_l	L5_S1_Flex_Ext	L5_S1_Lat_Bending	L5_S1_axial_rotation	L4_L5_Flex_Ext	L4_L5_Lat_Bending	L4_L5_axial_rotation	L3_L4_Flex_Ext	L3_L4_Lat_Bending	L3_L4_axial_rotation	L2_L3_Flex_Ext	L2_L3_Lat_Bending	L2_L3_axial_rotation	L1_L2_Flex_Ext	L1_L2_Lat_Bending	L1_L2_axial_rotation	L1_T12_Flex_Ext	L1_T12_Lat_Bending	L1_T12_axial_rotation	Abs_r3	Abs_r2	Abs_r1	Abs_t1	Abs_t2	neck_flexion	neck_bending	neck_rotation	arm_flex_r	arm_add_r	arm_rot_r	elbow_flex_r	pro_sup_r	wrist_flex_r	wrist_dev_r	arm_flex_l	arm_add_l	arm_rot_l	elbow_flex_l	pro_sup_l	wrist_flex_l	wrist_dev_l
3.057692	7.022641	-5.819489	112.594900	0.350387	0.457797	0.965116	11.909869	0.062425	-11.170160	9.509807	0.165977	25.344840	11.444421	0.000000	16.675709	-1.386064	-3.340860	16.456289	0.287216	29.997324	2.663692	0.000000	0.321747	0.239012	-0.366006	0.597517	0.317886	-0.388881	0.528598	0.581134	-0.388881	0.367725	0.581134	-0.320255	0.298774	0.487394	-0.297380	0.183846	0.370230	-0.274505	2.298207	2.703753	-2.035616	0.000000	0.000000	26.493954	1.466717	8.422839	193.676640	-169.463052	301.095003	9.901630	12.257638	-3.842882	-2.927168	198.789646	-174.527079	353.001051	-1.239949	-2.026109	-2.228343	-16.259848
3.076923	6.960971	-5.323826	112.080169	0.349439	0.460140	0.965969	11.432114	0.151230	-10.733268	9.465970	0.165212	24.959163	11.608064	0.000000	15.873800	-1.401703	-2.979933	16.061161	0.280320	29.341116	1.447630	0.000000	0.275601	0.272268	-0.196974	0.511819	0.362116	-0.209284	0.452785	0.661991	-0.209284	0.314985	0.661991	-0.172352	0.255923	0.555208	-0.160041	0.157478	0.421742	-0.147730	1.968591	3.079944	-1.095508	0.000000	0.000000	25.686723	1.017903	7.774571	193.570206	-170.031764	296.872864	11.966450	16.009637	-3.298427	-3.017085	199.765976	-177.904676	353.411213	-2.592422	-2.345739	-0.306421	-18.235679
3.096154	6.739468	-4.871635	111.553446	0.348789	0.462713	0.966713	10.919832	0.099942	-10.198385	9.354498	0.163267	24.571002	11.702305	0.000000	14.991889	-1.270511	-2.771591	15.526408	0.270987	28.591074	0.413441	0.000000	0.229282	0.278422	-0.036905	0.425800	0.370301	-0.039211	0.376688	0.676955	-0.039211	0.262047	0.676955	-0.032291	0.212912	0.567758	-0.029985	0.131012	0.431275	-0.027678	1.637742	3.149563	-0.205252	0.000000	0.000000	24.815257	0.782390	6.967610	193.673522	-170.369284	291.731949	14.754368	20.368740	-2.223551	-2.876244	200.437540	-180.457192	351.072849	-2.203441	-1.513484	1.205970	-19.780891
3.115385	6.376029	-4.477550	111.046248	0.348462	0.465409	0.967397	10.410463	-0.096192	-9.697646	9.226172	0.161027	24.194747	11.833992	0.000000	14.086922	-1.005377	-2.715509	14.903928	0.260123	27.793182	-0.398712	0.000000	0.185451	0.257471	0.107913	0.344402	0.342437	0.114658	0.304678	0.626016	0.114658	0.211952	0.626016	0.094424	0.172210	0.525035	0.087679	0.105967	0.398823	0.080935	1.324661	2.912566	0.600181	0.000000	0.000000	23.871965	0.768553	5.957763	193.931952	-170.423897	285.876392	18.268475	25.090994	-0.767097	-2.661594	200.748610	-182.144893	346.079446	-0.104607	0.781231	2.286179	-20.755127
3.134615	5.870174	-4.153593	110.569429	0.348495	0.468140	0.968028	9.923166	-0.449945	-9.323633	9.115655	0.159098	23.863496	12.091140	0.000000	13.185006	-0.609550	-2.849594	14.216633	0.248127	26.973605	-0.929559	0.000000	0.145226	0.208037	0.239514	0.269699	0.276690	0.254484	0.238592	0.505822	0.254484	0.165979	0.505822	0.209575	0.134857	0.424230	0.194605	0.082982	0.322250	0.179636	1.037335	2.353360	1.332107	0.000000	0.000000	22.853152	1.005639	4.730588	194.237972	-170.175289	279.178288	22.484181	30.033539	0.890648	-2.459461	200.746744	-182.976654	338.948911	3.654929	4.401708	2.885200	-21.012074
3.153846	5.256022	-3.902673	110.180514	0.348863	0.470801	0.968632	9.470452	-0.938572	-9.108772	9.038112	0.157745	23.584497	12.444498	0.000000	12.338175	-0.111757	-3.131006	13.526588	0.236084	26.172361	-1.159279	0.000000	0.110342	0.133779	0.346646	0.204917	0.177927	0.368311	0.181282	0.325271	0.368311	0.126110	0.325271	0.303315	0.102464	0.272803	0.281650	0.063050	0.207224	0.259984	0.788165	1.513339	1.927940	0.000000	0.000000	21.769713	1.451916	3.305433	194.539482	-169.637433	271.796120	27.337486	34.927300	2.612462	-2.334558	200.436446	-183.001850	329.898802	8.935839	9.450895	3.073677	-20.452860
